<?xml version="1.0" encoding="UTF-8" standalone="no"?>
<!-- Created with Inkscape (http://www.inkscape.org/) -->

<svg
   width="2048"
   height="2048"
   viewBox="0 0 541.86665 541.86666"
   version="1.1"
   id="svg1"
   inkscape:version="1.4 (e7c3feb100, 2024-10-09)"
   sodipodi:docname="snrk2-solid.svg"
   xmlns:inkscape="http://www.inkscape.org/namespaces/inkscape"
   xmlns:sodipodi="http://sodipodi.sourceforge.net/DTD/sodipodi-0.dtd"
   xmlns="http://www.w3.org/2000/svg"
   xmlns:svg="http://www.w3.org/2000/svg">
  <sodipodi:namedview
     id="namedview1"
     pagecolor="#ffffff"
     bordercolor="#000000"
     borderopacity="0.25"
     inkscape:showpageshadow="2"
     inkscape:pageopacity="0.0"
     inkscape:pagecheckerboard="0"
     inkscape:deskcolor="#d1d1d1"
     inkscape:document-units="mm"
     inkscape:zoom="0.2320677"
     inkscape:cx="1200.0808"
     inkscape:cy="1085.89"
     inkscape:window-width="1920"
     inkscape:window-height="1011"
     inkscape:window-x="0"
     inkscape:window-y="0"
     inkscape:window-maximized="1"
     inkscape:current-layer="g17"
     showgrid="false" />
  <defs
     id="defs1" />
  <g
     inkscape:label="Layer 1"
     inkscape:groupmode="layer"
     id="layer1">
    <g
       id="g17"
       transform="matrix(0.98898021,0,0,0.98898021,21.133247,-29.238193)"
       inkscape:transform-center-x="4.8739785"
       inkscape:transform-center-y="-67.042798">
      <path
         style="fill:none;fill-opacity:1;stroke:#000000;stroke-width:6.61458;stroke-dasharray:none;stroke-opacity:1"
         d="m 206.38244,220.89371 c 0,0 12.59581,-133.680946 -35.47198,-158.817741 -32.14864,-16.811963 -97.463965,4.987287 -100.772676,41.115251 -2.27069,24.79377 39.239176,48.11274 62.882146,40.30907 13.64948,-4.50519 15.31745,-40.30907 15.31745,-40.30907"
         id="path6"
         sodipodi:nodetypes="csssc" />
      <path
         style="fill:none;fill-opacity:1;stroke:#000000;stroke-width:6.61458;stroke-dasharray:none;stroke-opacity:1"
         d="m 264.4275,237.82352 c 0,0 -13.59197,-119.22341 19.34836,-162.848648 15.96899,-21.148876 49.58499,-42.335914 73.3625,-30.634894 33.6878,16.577918 51.54918,78.797092 29.02254,108.834492 -13.86951,18.49384 -53.79428,18.72894 -69.3316,1.61236 -15.09968,-16.63446 -13.69224,-61.303477 8.0618,-66.913055 13.79386,-3.556936 24.99165,34.665805 24.99165,34.665805"
         id="path7"
         sodipodi:nodetypes="csssssc" />
      <ellipse
         style="fill:#000000;fill-opacity:1;stroke:#000000;stroke-width:5.01307;stroke-dasharray:none;stroke-opacity:1"
         id="path16"
         cx="154.20013"
         cy="280.70139"
         rx="27.689175"
         ry="21.512289"
         transform="rotate(4.8197153)" />
      <ellipse
         style="fill:#000000;fill-opacity:1;stroke:#000000;stroke-width:6.01531;stroke-dasharray:none;stroke-opacity:1"
         id="path16-9"
         cx="368.25641"
         cy="293.10025"
         rx="33.552391"
         ry="25.561258" />
      <ellipse
         style="fill:#000000;fill-opacity:1;stroke:#000000;stroke-width:6.61458;stroke-dasharray:none;stroke-opacity:1"
         id="path16-2"
         cx="199.15158"
         cy="407.87668"
         rx="35.439262"
         ry="29.262377" />
      <ellipse
         style="fill:#000000;fill-opacity:1;stroke:#000000;stroke-width:6.61458;stroke-dasharray:none;stroke-opacity:1"
         id="path16-2-0"
         cx="303.18964"
         cy="398.9838"
         rx="35.439262"
         ry="29.262377" />
      <path
         style="fill:#000000;stroke:#000000;stroke-width:6.61458;stroke-dasharray:none;stroke-opacity:1;fill-opacity:1"
         d="m 256.52535,215.4813 29.64294,-43.32428 3.42032,55.86552 90.06893,-41.04405 -52.44521,61.56608 98.04969,27.36271 -85.50844,20.52202 57.00565,44.46441 -75.24745,-12.54125 41.04404,84.36835 -71.82709,-46.74463 -52.44518,66.12655 -11.40112,-55.86554 -70.68699,52.44519 18.2418,-96.90958 -71.8271,-7.98078 51.30507,-19.38193 -49.02484,-44.46439 71.82709,-13.68135 -59.28585,-57.00563 60.42597,31.92315 42.18417,-67.26666 z"
         id="path1"
         sodipodi:nodetypes="ccccccccccccccccccccccc" />
      <circle
         style="fill:#000000;fill-opacity:1;stroke:#000000;stroke-width:6.61458;stroke-dasharray:none;stroke-opacity:1"
         id="path5"
         cx="260.79968"
         cy="346.25491"
         r="5.2401795" />
    </g>
  </g>
</svg>
