<?xml version="1.0" encoding="UTF-8" standalone="no"?>
<!-- Created with Inkscape (http://www.inkscape.org/) -->

<svg
   width="2048"
   height="2048"
   viewBox="0 0 541.86665 541.86666"
   version="1.1"
   id="svg1"
   inkscape:version="1.4 (e7c3feb100, 2024-10-09)"
   sodipodi:docname="snrk2.svg"
   xmlns:inkscape="http://www.inkscape.org/namespaces/inkscape"
   xmlns:sodipodi="http://sodipodi.sourceforge.net/DTD/sodipodi-0.dtd"
   xmlns="http://www.w3.org/2000/svg"
   xmlns:svg="http://www.w3.org/2000/svg">
  <sodipodi:namedview
     id="namedview1"
     pagecolor="#ffffff"
     bordercolor="#000000"
     borderopacity="0.25"
     inkscape:showpageshadow="2"
     inkscape:pageopacity="0.0"
     inkscape:pagecheckerboard="0"
     inkscape:deskcolor="#d1d1d1"
     inkscape:document-units="mm"
     inkscape:zoom="0.2320677"
     inkscape:cx="1200.0808"
     inkscape:cy="1085.89"
     inkscape:window-width="1920"
     inkscape:window-height="1011"
     inkscape:window-x="0"
     inkscape:window-y="0"
     inkscape:window-maximized="1"
     inkscape:current-layer="layer1"
     showgrid="false" />
  <defs
     id="defs1" />
  <g
     inkscape:label="Layer 1"
     inkscape:groupmode="layer"
     id="layer1">
    <path
       style="fill:none;fill-opacity:1;stroke:#000000;stroke-width:8;stroke-dasharray:none;stroke-opacity:1"
       d="m 225.2414,189.22131 c 0,0 12.457,-132.207805 -35.08109,-157.067598 C 158.36594,15.527013 93.770377,37.08604 90.498127,72.815881 88.25246,97.336429 129.3049,120.39843 152.68733,112.68075 c 13.49906,-4.45554 15.14865,-39.864869 15.14865,-39.864869"
       id="path6"
       sodipodi:nodetypes="csssc" />
    <path
       style="fill:none;fill-opacity:1;stroke:#000000;stroke-width:8;stroke-dasharray:none;stroke-opacity:1"
       d="m 282.64681,205.96456 c 0,0 -13.44219,-117.909591 19.13515,-161.054088 15.79301,-20.91582 49.03857,-41.8693815 72.55406,-30.297304 33.31656,16.395233 50.98112,77.928764 28.70271,107.635162 -13.71667,18.29004 -53.20147,18.52255 -68.56758,1.59459 -14.93328,-16.45115 -13.54135,-60.627927 7.97297,-66.175689 13.64185,-3.517739 24.71624,34.283796 24.71624,34.283796"
       id="path7"
       sodipodi:nodetypes="csssssc" />
    <ellipse
       style="fill:#ffffff;fill-opacity:1;stroke:#000000;stroke-width:7;stroke-dasharray:none;stroke-opacity:1"
       id="path16"
       cx="171.10278"
       cy="246.69768"
       rx="27.384047"
       ry="21.275229"
       transform="rotate(4.8197154)" />
    <ellipse
       style="fill:#ffffff;fill-opacity:1;stroke:#000000;stroke-width:7;stroke-dasharray:none;stroke-opacity:1"
       id="path16-9"
       cx="385.33154"
       cy="260.63214"
       rx="33.182652"
       ry="25.279579" />
    <ellipse
       style="fill:#ffffff;fill-opacity:1;stroke:#000000;stroke-width:7;stroke-dasharray:none;stroke-opacity:1"
       id="path16-2"
       cx="218.09023"
       cy="374.14377"
       rx="35.048729"
       ry="28.939911" />
    <ellipse
       style="fill:#ffffff;fill-opacity:1;stroke:#000000;stroke-width:7;stroke-dasharray:none;stroke-opacity:1"
       id="path16-2-0"
       cx="320.98181"
       cy="365.34888"
       rx="35.048729"
       ry="28.939911" />
    <path
       style="fill:#ffffff;stroke:#000000;stroke-width:8;stroke-dasharray:none;stroke-opacity:1"
       d="m 274.83174,183.86855 29.31628,-42.84686 3.38263,55.2499 89.07639,-40.59176 -51.86727,60.88764 96.9692,27.06118 -84.56616,20.29587 56.37746,43.97442 -74.41824,-12.40305 40.59175,83.43863 -71.03557,-46.22951 -51.86725,65.39785 -11.27548,-55.24992 -69.90803,51.86726 18.04078,-95.84166 -71.03559,-7.89283 50.7397,-19.16835 -48.48459,-43.9744 71.03557,-13.53058 -58.63253,-56.37744 59.76008,31.57136 41.71931,-66.5254 z"
       id="path1"
       sodipodi:nodetypes="ccccccccccccccccccccccc" />
    <ellipse
       style="fill:#000000;fill-opacity:1;stroke:#000000;stroke-width:3.7573;stroke-dasharray:none;stroke-opacity:1"
       id="path4"
       cx="240.79944"
       cy="250.45047"
       rx="12.385791"
       ry="11.819121" />
    <ellipse
       style="fill:none;stroke:#000000;stroke-width:6.54169;stroke-dasharray:none;stroke-opacity:1"
       id="path2"
       cx="240.44151"
       cy="250.39394"
       rx="18.604559"
       ry="37.209118" />
    <ellipse
       style="fill:#ffffff;stroke:#000000;stroke-width:6.54169;stroke-dasharray:none;stroke-opacity:1"
       id="path3"
       cx="350.48636"
       cy="172.8938"
       rx="10.352407"
       ry="16.750547"
       transform="rotate(15)" />
    <ellipse
       style="fill:#000000;fill-opacity:1;stroke:#000000;stroke-width:1.99078;stroke-dasharray:none;stroke-opacity:1"
       id="path4-1"
       cx="292.68732"
       cy="257.16302"
       rx="6.5625052"
       ry="6.2622604" />
    <circle
       style="fill:#000000;fill-opacity:1;stroke:#000000;stroke-width:6.54169;stroke-dasharray:none;stroke-opacity:1"
       id="path5"
       cx="279.05896"
       cy="313.20105"
       r="5.1824341" />
  </g>
</svg>
